<svg width="187" height="47" viewBox="0 0 187 47" fill="none"
    xmlns="http://www.w3.org/2000/svg">
    <path d="M52.6004 45.1621C51.41 46.333 49.6706 47.0003 47.8243 47.0003H19.5523C17.2141 47.0003 15.154 45.7116 14.2985 43.7165C14.2558 43.6249 14.2201 43.5333 14.1987 43.4352H47.8243C48.5942 43.4352 49.2999 43.1801 49.7632 42.7287C49.9771 42.5129 50.2266 42.1662 50.191 41.7083L48.0239 13.1224H10.2852L10.4491 11.1992C10.5275 10.2703 11.3687 9.55078 12.3881 9.55078H49.8417C50.861 9.55078 51.7094 10.2769 51.7806 11.2123L54.0689 41.4597C54.1758 42.8138 53.6483 44.1286 52.6004 45.1621Z" fill="white"/>
    <path d="M41.6941 9.71397H37.809C37.809 6.32553 34.8079 3.5716 31.1152 3.5716C27.4226 3.5716 24.4215 6.32553 24.4215 9.71397H20.5293C20.5293 4.35657 25.2769 0 31.1152 0C36.9464 0 41.6941 4.35657 41.6941 9.71397Z" fill="white"/>
    <path d="M45.9076 38.4114C45.986 39.3926 45.1876 40.2495 44.1183 40.3215C43.0419 40.3934 42.108 39.6674 42.0296 38.6796L39.891 13.1224H6.05877L3.89168 41.7083C3.85603 42.1662 4.10553 42.5129 4.31939 42.7287C4.77562 43.1801 5.48135 43.4352 6.25124 43.4352H34.5303C35.6424 43.4352 36.0558 42.6568 36.1556 42.4147C36.2626 42.1792 36.5263 41.3419 35.7137 40.6551L30.9874 36.6649C30.1961 35.9976 30.1462 34.866 30.8734 34.1464C31.6005 33.4203 32.8337 33.3745 33.625 34.0418L38.3512 38.032C39.9908 39.4188 40.5754 41.512 39.8768 43.4352C39.8554 43.5333 39.8197 43.6249 39.777 43.7165C38.9287 45.7116 36.8685 47.0003 34.5303 47.0003H6.25124C4.41206 47.0003 2.66556 46.333 1.48222 45.1621C0.427186 44.1286 -0.093201 42.8138 0.0137278 41.4597L2.302 11.2123C2.37329 10.2769 3.22159 9.55078 4.24098 9.55078H41.6946C42.7068 9.55078 43.5551 10.2703 43.6335 11.1992L43.7975 13.1224L45.9076 38.4114Z" fill="white"/>
    <path d="M33.5542 9.71397H29.6691C29.6691 6.32553 26.6679 3.5716 22.9753 3.5716C19.2827 3.5716 16.2816 6.32553 16.2816 9.71397H12.3965C12.3823 4.35657 17.1299 0 22.9682 0C28.8065 0 33.5542 4.35657 33.5542 9.71397Z" fill="white"/>
    <path d="M22.9679 39.3195C16.3312 39.3195 10.9277 34.3676 10.9277 28.2711C10.9277 22.1745 16.3312 17.2227 22.9679 17.2227C29.6046 17.2227 35.0081 22.181 35.0081 28.2711C35.0081 34.3611 29.6046 39.3195 22.9679 39.3195ZM22.9679 20.7943C18.4769 20.7943 14.8199 24.15 14.8199 28.2711C14.8199 32.3921 18.4769 35.7479 22.9679 35.7479C27.4589 35.7479 31.1159 32.3921 31.1159 28.2711C31.1159 24.15 27.4589 20.7943 22.9679 20.7943Z" fill="white"/>
    <path d="M28.7201 29.4686C28.0072 29.4686 27.4227 28.9387 27.4227 28.278C27.4227 26.0213 25.4267 24.1897 22.9673 24.1897C22.2545 24.1897 21.6699 23.6598 21.6699 22.9991C21.6699 22.3384 22.2473 21.8086 22.9673 21.8086C26.8524 21.8086 30.0104 24.7064 30.0104 28.2715C30.0104 28.9322 29.4329 29.4686 28.7201 29.4686Z" fill="#FDC461"/>
    <path d="M72.8437 7.26177H63.2812V21.5871H72.8437V18.7914H67.084V15.6488H72.1765V12.9552H67.084V10.0575H72.8437V7.26177Z" fill="white"/>
    <path d="M75.0901 15.8733H84.8749V12.9756H75.0901V15.8733Z" fill="white"/>
    <path d="M88.2124 21.5871H92.0151V12.9756L95.5288 21.5871H98.5977L102.089 12.996V21.5871H105.892V7.26177H101.422L97.0855 17.1793L92.7045 7.26177H88.2124V21.5871Z" fill="white"/>
    <path d="M107.87 15.8733C107.87 19.4648 110.294 21.7504 113.319 21.7504C115.164 21.7504 116.477 20.9749 117.166 19.975V21.5871H120.969V10.2003H117.166V11.8124C116.499 10.8125 115.187 10.037 113.341 10.037C110.294 10.037 107.87 12.2818 107.87 15.8733ZM117.166 15.8937C117.166 17.7099 115.898 18.7098 114.453 18.7098C113.03 18.7098 111.74 17.6895 111.74 15.8733C111.74 14.0571 113.03 13.0776 114.453 13.0776C115.898 13.0776 117.166 14.0775 117.166 15.8937Z" fill="white"/>
    <path d="M127.522 16.3018C127.522 14.3428 128.568 13.7714 130.369 13.7714H131.414V10.0779C129.746 10.0779 128.39 10.8941 127.522 12.0981V10.2003H123.72V21.5871H127.522V16.3018Z" fill="white"/>
    <path d="M133.232 21.5871H137.035V16.812L140.815 21.5871H145.53L140.326 15.9141L145.485 10.2003H140.793L137.035 14.8326V6.48633H133.232V21.5871Z" fill="white"/>
    <path d="M152.449 12.8327C153.717 12.8327 154.784 13.547 154.784 14.7918H150.025C150.248 13.5266 151.204 12.8327 152.449 12.8327ZM158.387 17.8119H154.34C154.028 18.4241 153.428 18.9139 152.36 18.9139C151.137 18.9139 150.137 18.22 150.003 16.7304H158.609C158.654 16.3835 158.676 16.0365 158.676 15.71C158.676 12.2409 156.119 10.037 152.494 10.037C148.802 10.037 146.223 12.2818 146.223 15.8937C146.223 19.5056 148.847 21.7504 152.494 21.7504C155.585 21.7504 157.786 20.0362 158.387 17.8119Z" fill="white"/>
    <path d="M161.283 17.6282C161.283 20.5872 163.084 21.5871 165.664 21.5871H167.598V18.6282H166.242C165.397 18.6282 165.085 18.3425 165.085 17.6691V13.098H167.576V10.2003H165.085V7.42502H161.283V10.2003H159.77V13.098H161.283V17.6282Z" fill="white"/>
    <path d="M179.79 18.2813C179.724 14.0367 173.008 15.3223 173.008 13.5061C173.008 12.9552 173.497 12.6287 174.386 12.6287C175.454 12.6287 176.099 13.1388 176.21 13.9143H179.724C179.479 11.6696 177.7 10.037 174.498 10.037C171.251 10.037 169.45 11.6288 169.45 13.5674C169.45 17.7507 176.21 16.4243 176.21 18.2608C176.21 18.771 175.699 19.1791 174.72 19.1791C173.675 19.1791 172.896 18.6486 172.808 17.8527H169.049C169.227 20.0566 171.451 21.7504 174.765 21.7504C177.878 21.7504 179.79 20.2607 179.79 18.2813Z" fill="white"/>
    <path d="M70.3132 37.0491C70.3132 34.5403 68.3117 32.7757 65.7347 32.7757C63.1708 32.7757 61.1562 34.5403 61.1562 37.0491C61.1562 39.5579 63.1708 41.3224 65.7347 41.3224C68.3117 41.3224 70.3132 39.5579 70.3132 37.0491ZM62.3728 37.0491C62.3728 34.9964 63.8118 33.724 65.7347 33.724C67.6577 33.724 69.0966 34.9964 69.0966 37.0491C69.0966 39.0897 67.6577 40.3741 65.7347 40.3741C63.8118 40.3741 62.3728 39.0897 62.3728 37.0491Z" fill="#FFAA17"/>
    <path d="M77.1303 41.2384H78.3076V37.3612C78.3076 35.4766 77.0387 34.5403 75.3774 34.5403C74.4094 34.5403 73.546 34.9124 73.0751 35.5966V34.6603H71.8847V41.2384H73.0751V37.6013C73.0751 36.1848 73.9123 35.4886 75.1288 35.4886C76.3323 35.4886 77.1303 36.1728 77.1303 37.5172V41.2384Z" fill="#FFAA17"/>
    <path d="M80.2521 41.2384H81.4425V32.3556H80.2521V41.2384Z" fill="#FFAA17"/>
    <path d="M83.4713 41.2384H84.6617V34.6603H83.4713V41.2384ZM84.0862 33.592C84.5179 33.592 84.871 33.2679 84.871 32.8478C84.871 32.4276 84.5179 32.1035 84.0862 32.1035C83.6283 32.1035 83.2751 32.4276 83.2751 32.8478C83.2751 33.2679 83.6283 33.592 84.0862 33.592Z" fill="#FFAA17"/>
    <path d="M91.9362 41.2384H93.1135V37.3612C93.1135 35.4766 91.8446 34.5403 90.1833 34.5403C89.2153 34.5403 88.3519 34.9124 87.881 35.5966V34.6603H86.6906V41.2384H87.881V37.6013C87.881 36.1848 88.7182 35.4886 89.9347 35.4886C91.1382 35.4886 91.9362 36.1728 91.9362 37.5172V41.2384Z" fill="#FFAA17"/>
    <path d="M98.106 35.4766C99.3356 35.4766 100.382 36.1848 100.369 37.4692H95.8429C95.9737 36.1848 96.9417 35.4766 98.106 35.4766ZM101.455 39.2098H100.173C99.9112 39.918 99.231 40.4221 98.1583 40.4221C96.9417 40.4221 95.9214 39.6899 95.8298 38.3575H101.559C101.586 38.1294 101.599 37.9374 101.599 37.6973C101.599 35.8967 100.238 34.5523 98.1583 34.5523C96.0653 34.5523 94.6133 35.8607 94.6133 37.9374C94.6133 40.026 96.1176 41.3464 98.1583 41.3464C99.9374 41.3464 101.089 40.4101 101.455 39.2098Z" fill="#FFAA17"/>
    <path d="M106.657 41.2384H107.848V35.0324L110.87 41.2384H111.707L114.716 35.0444V41.2384H115.906V32.9318H114.637L111.288 39.7979L107.939 32.9318H106.657V41.2384Z" fill="#FFAA17"/>
    <path d="M117.48 37.9254C117.48 39.966 118.958 41.3464 120.868 41.3464C122.189 41.3464 123.118 40.7222 123.55 40.014V41.2384H124.753V34.6603H123.55V35.8607C123.131 35.1765 122.215 34.5523 120.881 34.5523C118.958 34.5523 117.48 35.8727 117.48 37.9254ZM123.55 37.9374C123.55 39.4858 122.425 40.3861 121.117 40.3861C119.808 40.3861 118.697 39.4738 118.697 37.9254C118.697 36.3769 119.808 35.5006 121.117 35.5006C122.425 35.5006 123.55 36.4129 123.55 37.9374Z" fill="#FFAA17"/>
    <path d="M127.955 37.6613C127.955 36.1368 128.819 35.6686 129.957 35.6686H130.271V34.5403C129.133 34.5403 128.361 34.9964 127.955 35.7287V34.6603H126.765V41.2384H127.955V37.6613Z" fill="#FFAA17"/>
    <path d="M131.645 41.2384H132.835V38.3335L135.648 41.2384H137.27L133.882 37.9374L137.257 34.6603H135.595L132.835 37.5772V32.3556H131.645V41.2384Z" fill="#FFAA17"/>
    <path d="M141.425 35.4766C142.655 35.4766 143.701 36.1848 143.688 37.4692H139.162C139.293 36.1848 140.261 35.4766 141.425 35.4766ZM144.774 39.2098H143.492C143.23 39.918 142.55 40.4221 141.477 40.4221C140.261 40.4221 139.24 39.6899 139.149 38.3575H144.879C144.905 38.1294 144.918 37.9374 144.918 37.6973C144.918 35.8967 143.557 34.5523 141.477 34.5523C139.384 34.5523 137.932 35.8607 137.932 37.9374C137.932 40.026 139.437 41.3464 141.477 41.3464C143.256 41.3464 144.408 40.4101 144.774 39.2098Z" fill="#FFAA17"/>
    <path d="M146.751 39.4378C146.751 40.7583 147.47 41.2384 148.739 41.2384H149.812V40.3141H148.935C148.203 40.3141 147.941 40.086 147.941 39.4378V35.5606H149.812V34.6603H147.941V33.0038H146.751V34.6603H145.822V35.5606H146.751V39.4378Z" fill="#FFAA17"/>
    <path d="M152.444 35.8727V34.6603H151.254V44.3594H152.444V40.026C152.889 40.6982 153.818 41.3464 155.126 41.3464C157.049 41.3464 158.527 39.966 158.527 37.9254C158.527 35.8727 157.049 34.5523 155.126 34.5523C153.818 34.5523 152.876 35.1765 152.444 35.8727ZM157.311 37.9254C157.311 39.4738 156.199 40.3861 154.878 40.3861C153.583 40.3861 152.444 39.4858 152.444 37.9374C152.444 36.4129 153.583 35.5006 154.878 35.5006C156.199 35.5006 157.311 36.3769 157.311 37.9254Z" fill="#FFAA17"/>
    <path d="M160.094 41.2384H161.285V32.3556H160.094V41.2384Z" fill="#FFAA17"/>
    <path d="M162.869 37.9254C162.869 39.966 164.347 41.3464 166.257 41.3464C167.578 41.3464 168.507 40.7222 168.938 40.014V41.2384H170.142V34.6603H168.938V35.8607C168.52 35.1765 167.604 34.5523 166.27 34.5523C164.347 34.5523 162.869 35.8727 162.869 37.9254ZM168.938 37.9374C168.938 39.4858 167.813 40.3861 166.505 40.3861C165.197 40.3861 164.085 39.4738 164.085 37.9254C164.085 36.3769 165.197 35.5006 166.505 35.5006C167.813 35.5006 168.938 36.4129 168.938 37.9374Z" fill="#FFAA17"/>
    <path d="M171.709 37.9374C171.709 40.026 173.161 41.3464 175.201 41.3464C176.98 41.3464 178.145 40.4341 178.511 39.1257H177.229C176.967 39.954 176.261 40.4221 175.201 40.4221C173.893 40.4221 172.925 39.5699 172.925 37.9374C172.925 36.3289 173.893 35.4766 175.201 35.4766C176.261 35.4766 176.98 35.9807 177.229 36.773H178.511C178.145 35.3926 176.98 34.5523 175.201 34.5523C173.161 34.5523 171.709 35.8727 171.709 37.9374Z" fill="#FFAA17"/>
    <path d="M183.147 35.4766C184.377 35.4766 185.423 36.1848 185.41 37.4692H180.884C181.015 36.1848 181.983 35.4766 183.147 35.4766ZM186.496 39.2098H185.214C184.953 39.918 184.272 40.4221 183.2 40.4221C181.983 40.4221 180.963 39.6899 180.871 38.3575H186.601C186.627 38.1294 186.64 37.9374 186.64 37.6973C186.64 35.8967 185.28 34.5523 183.2 34.5523C181.107 34.5523 179.655 35.8607 179.655 37.9374C179.655 40.026 181.159 41.3464 183.2 41.3464C184.979 41.3464 186.13 40.4101 186.496 39.2098Z" fill="#FFAA17"/>
</svg>
